<svg width="137" height="101" viewBox="0 0 137 101" fill="none" xmlns="http://www.w3.org/2000/svg">
<path d="M130.129 73.7535L121.888 71.399C121.532 71.2973 121.284 70.968 121.284 70.5979V67.8472C121.954 67.3827 122.594 66.8628 123.192 66.2825C126.089 63.4709 127.685 59.6996 127.685 55.6631V51.8673L128.481 50.274C129.356 48.5247 129.818 46.5663 129.818 44.6108V34.3279C129.818 33.2259 128.925 32.3325 127.823 32.3325H108.621C101.639 32.3325 95.9579 38.0132 95.9579 44.9955V45.1144C95.9579 46.7405 96.3423 48.369 97.0694 49.8233L98.0913 51.8671V55.1262C98.0913 60.2913 100.637 64.9257 104.492 67.7144L104.493 70.5974C104.493 71.0419 104.493 71.226 102.845 71.697L98.8238 72.8458L87.1917 68.6161C87.2335 68.0672 87.0483 67.509 86.6479 67.0884L82.9309 63.1833V56.6278C83.3239 56.304 83.7113 55.9714 84.0867 55.6197C88.7758 51.2245 91.4651 45.0192 91.4651 38.5948V33.3595C92.881 30.2783 93.5985 27.0179 93.5985 23.66V2.32534C93.5985 1.22336 92.7051 0.329956 91.6031 0.329956H61.7338C51.2221 0.329956 42.6704 8.88192 42.6704 19.3933V23.6605C42.6704 27.0184 43.388 30.2788 44.8039 33.36V37.8645C44.8039 45.3235 48.1205 52.0435 53.338 56.4738V63.1836L49.621 67.0887C49.2206 67.5093 49.0354 68.0675 49.0772 68.6163L36.8003 73.0804C35.9106 73.4039 35.084 73.8421 34.3334 74.3729L32.4056 73.409C38.1443 70.911 39.9623 67.3978 40.0495 67.2233C40.3305 66.6617 40.3305 66.0003 40.0495 65.4386C38.611 62.5615 38.4367 57.2881 38.2968 53.051C38.2502 51.6404 38.2061 50.3077 38.1217 49.1211C37.4414 39.5502 30.1655 32.3325 21.1969 32.3325C12.2283 32.3325 4.95202 39.5499 4.27199 49.1211C4.18765 50.308 4.14349 51.6407 4.09693 53.0515C3.95698 57.2884 3.78245 62.5613 2.34418 65.4384C2.06323 66 2.06323 66.6614 2.34418 67.223C2.43145 67.3976 4.24565 70.9036 9.99582 73.4045L4.641 76.0817C1.77829 77.5142 0 80.3915 0 83.5919V98.3335C0 99.4355 0.893401 100.329 1.99539 100.329C3.09737 100.329 3.99077 99.4355 3.99077 98.3335V83.5919C3.99077 81.9125 4.92382 80.4027 6.42568 79.6516L13.0937 76.3177L15.4132 78.522C17.035 80.0632 19.1155 80.8334 21.1969 80.8334C23.2776 80.8334 25.3592 80.0627 26.9806 78.522L29.2997 76.318L31.4739 77.4051C30.4501 79.0432 29.8691 80.9641 29.8691 82.9762V98.334C29.8691 99.436 30.7625 100.329 31.8645 100.329C32.9664 100.329 33.8598 99.436 33.8598 98.334V82.9762C33.8598 80.2369 35.5895 77.7675 38.164 76.8312L51.108 72.1245L56.4963 80.2074C57.1851 81.2408 58.289 81.9035 59.5248 82.0259C59.6626 82.0394 59.7996 82.0461 59.9364 82.0461C61.0266 82.0461 62.0709 81.617 62.8515 80.8366L66.1388 77.5493V98.3343C66.1388 99.4363 67.0322 100.33 68.1342 100.33C69.2362 100.33 70.1296 99.4363 70.1296 98.3343V77.5493L73.4169 80.8366C74.1973 81.6172 75.2415 82.0464 76.3321 82.0464C76.4685 82.0464 76.6058 82.0397 76.7434 82.0261C77.9794 81.9038 79.0833 81.241 79.7721 80.2077L85.1607 72.125L98.1044 76.8317C100.679 77.768 102.409 80.2375 102.409 82.9767V98.3346C102.409 99.4366 103.302 100.33 104.404 100.33C105.506 100.33 106.399 99.4366 106.399 98.3346V82.9767C106.399 80.2024 105.297 77.6004 103.448 75.676L103.941 75.5353C104.438 75.3932 105.117 75.1987 105.798 74.8648L110.892 79.9594V98.3346C110.892 99.4366 111.786 100.33 112.888 100.33C113.99 100.33 114.883 99.4366 114.883 98.3346V79.9594L119.942 74.9002C120.211 75.037 120.494 75.1524 120.791 75.2373L129.033 77.5919C130.914 78.1293 132.228 79.8711 132.228 81.8277V98.3346C132.228 99.4366 133.121 100.33 134.223 100.33C135.325 100.33 136.218 99.4366 136.218 98.3346V81.8277C136.218 78.0982 133.714 74.7781 130.129 73.7535ZM12.8011 70.2291C9.06863 68.8861 7.19643 67.0956 6.39721 66.1179C6.94208 64.6934 7.2954 63.062 7.53458 61.3398C8.63497 63.9783 10.4779 66.2307 12.8011 67.8376V70.2291ZM24.232 75.6295C22.53 77.2465 19.8639 77.2463 18.1625 75.6292L16.3068 73.8658C16.62 73.2792 16.7921 72.614 16.7921 71.9172V69.7904C18.1841 70.2254 19.6639 70.4601 21.1974 70.4601C22.7291 70.4601 24.208 70.2244 25.6024 69.7918L25.6021 71.917C25.6021 72.614 25.774 73.2794 26.0874 73.8663L24.232 75.6295ZM21.1979 66.4693C15.2394 66.4693 10.3922 61.6218 10.3922 55.6636C10.3922 54.5616 9.49884 53.6682 8.39685 53.6682C8.28511 53.6682 8.17603 53.6797 8.06934 53.6975C8.0752 53.5259 8.08078 53.354 8.08664 53.184C8.13107 51.812 8.1739 50.5161 8.25292 49.4045C8.5078 45.8192 9.94048 42.5154 12.2871 40.1012C14.6547 37.6652 17.8191 36.3238 21.1974 36.3238C24.5757 36.3238 27.7399 37.6652 30.1077 40.1012C32.4543 42.5154 33.887 45.8192 34.1419 49.4045C34.2206 50.5158 34.2637 51.8115 34.3089 53.1832C34.3129 53.3011 34.3169 53.4205 34.3209 53.5392C32.1499 50.1944 28.7972 47.7294 24.465 46.3375C20.4628 45.0516 17.0206 45.1312 16.8754 45.1349C16.3529 45.1495 15.8569 45.3682 15.4943 45.7444L11.8941 49.4782C11.1292 50.2716 11.1521 51.5348 11.9454 52.2997C12.7388 53.0646 14.002 53.0414 14.7669 52.2483L17.7627 49.1416C20.3426 49.2677 28.6426 50.233 31.8706 57.3411C31.0583 62.5791 26.5562 66.4693 21.1979 66.4693ZM29.5926 70.2358L29.5929 67.856C31.9142 66.2578 33.7598 64.0097 34.861 61.3513C35.1002 63.0694 35.4532 64.6971 35.997 66.1184C35.2023 67.0868 33.3214 68.8933 29.5926 70.2358ZM48.7947 37.8642V32.9136C48.7947 32.6132 48.7268 32.3165 48.5962 32.046C47.3122 29.387 46.6612 26.5658 46.6612 23.6605V19.3936C46.6612 11.0824 53.4229 4.321 61.7338 4.321H89.6078V23.6608C89.6078 26.5661 88.9567 29.3873 87.6728 32.0462C87.5421 32.3168 87.4743 32.6134 87.4743 32.9138V38.5954C87.4743 43.9991 85.302 49.0113 81.3575 52.7086C80.865 53.1699 80.354 53.6025 79.8256 54.0056C79.8139 54.0136 79.8027 54.0224 79.7913 54.0306C76.0961 56.8361 71.57 58.1996 66.8433 57.8934C56.7225 57.2381 48.7947 48.4403 48.7947 37.8642ZM60.0297 78.0144C60.0159 78.0282 59.9837 78.0609 59.9185 78.054C59.8536 78.0476 59.8281 78.0096 59.8172 77.9931L53.6115 68.6845L55.6085 66.5861L65.0227 73.0211L60.0297 78.0144ZM68.1345 70.314L57.3288 62.9279V59.2032C60.1247 60.7146 63.2554 61.6599 66.585 61.8754C67.111 61.9094 67.6338 61.9262 68.155 61.9262C71.9704 61.9262 75.6424 61.0142 78.9402 59.283V62.9279L68.1345 70.314ZM76.4518 77.9936C76.4409 78.0101 76.4153 78.0481 76.3504 78.0545C76.2852 78.0628 76.2533 78.0285 76.2392 78.0149L71.2462 73.0219L80.6604 66.5866L82.6577 68.685L76.4518 77.9936ZM112.888 76.31L108.36 71.7821C108.439 71.4232 108.483 71.0302 108.483 70.5968L108.483 69.7548C109.739 70.1672 111.064 70.4119 112.434 70.4529C112.588 70.4577 112.74 70.4598 112.894 70.4598C114.408 70.4598 115.886 70.231 117.293 69.7944V70.5979C117.293 70.9959 117.343 71.3859 117.437 71.7608L112.888 76.31ZM120.413 63.4188C118.298 65.4711 115.504 66.555 112.554 66.464C106.78 66.2908 102.082 61.2047 102.082 55.1267V51.3964C102.082 51.0865 102.01 50.781 101.871 50.5041L100.639 48.0389C100.187 47.1356 99.9487 46.1246 99.9487 45.1147V44.9958C99.9487 40.2137 103.839 36.3235 108.621 36.3235H125.827V44.611C125.827 45.9503 125.511 47.2915 124.912 48.4895L123.904 50.5041C123.766 50.7813 123.694 51.0865 123.694 51.3964V55.6634C123.694 58.6112 122.528 61.3654 120.413 63.4188Z" fill="white"/>
</svg>
