<svg width="105" height="101" viewBox="0 0 105 101" fill="none" xmlns="http://www.w3.org/2000/svg">
<path d="M69.3175 53.7389H3.40907C1.52726 53.7389 0 52.2117 0 50.3298C0 48.448 1.52726 46.9208 3.40907 46.9208H69.3175C71.1993 46.9208 72.7266 48.448 72.7266 50.3298C72.7266 52.2117 71.1993 53.7389 69.3175 53.7389Z" fill="white"/>
<path d="M51.1358 71.9204C50.2627 71.9204 49.3905 71.5892 48.7263 70.9208C47.3946 69.5892 47.3946 67.4302 48.7263 66.0977L64.4991 50.3258L48.7263 34.553C47.3946 33.2213 47.3946 31.0615 48.7263 29.7298C50.0588 28.3982 52.2178 28.3982 53.5494 29.7298L71.7309 47.9121C73.0625 49.2438 73.0625 51.4027 71.7309 52.7344L53.5494 70.9158C52.8811 71.5892 52.0089 71.9204 51.1358 71.9204Z" fill="white"/>
<path d="M54.5447 100.33C33.8581 100.33 15.5951 87.8847 8.00874 68.6204C7.31794 66.8751 8.18102 64.8934 9.93134 64.2026C11.6767 63.521 13.6633 64.3707 14.3541 66.1302C20.9043 82.7619 36.6812 93.5118 54.5447 93.5118C78.3533 93.5118 97.7266 74.1385 97.7266 50.33C97.7266 26.5214 78.3533 7.1481 54.5447 7.1481C36.6812 7.1481 20.9043 17.898 14.3541 34.5297C13.6583 36.2892 11.6767 37.1389 9.93134 36.4573C8.18102 35.7665 7.31794 33.7848 8.00874 32.0395C15.5951 12.7752 33.8581 0.329956 54.5447 0.329956C82.1128 0.329956 104.545 22.7619 104.545 50.33C104.545 77.898 82.1128 100.33 54.5447 100.33Z" fill="white"/>
</svg>
