<svg width="116" height="107" viewBox="0 0 116 107" fill="none" xmlns="http://www.w3.org/2000/svg">
<circle cx="58" cy="53.33" r="14" stroke="white" stroke-width="6"/>
<path d="M89.7969 93.7572L91.4636 96.2516L92.9268 95.2739L92.7875 93.5196L89.7969 93.7572ZM26.3284 94.3161L23.3424 94.0262L23.1653 95.851L24.7083 96.8411L26.3284 94.3161ZM4.39652 64.5913L1.48759 65.3248L2.05779 67.5859L4.38963 67.5913L4.39652 64.5913ZM110.869 64.616L111.025 67.6119L113.235 67.4967L113.777 65.3512L110.869 64.616ZM57.6358 106.33C70.2967 106.33 81.9747 102.592 91.4636 96.2516L88.1302 91.2627C79.6262 96.9447 69.1078 100.33 57.6358 100.33V106.33ZM24.7083 96.8411C34.0313 102.823 45.3726 106.33 57.6358 106.33V100.33C46.524 100.33 36.3069 97.1539 27.9484 91.7911L24.7083 96.8411ZM23.4798 91.1678C23.4798 92.14 23.433 93.0936 23.3424 94.0262L29.3143 94.606C29.4237 93.48 29.4798 92.3329 29.4798 91.1678H23.4798ZM4.38963 67.5913C14.1025 67.6135 23.4798 77.2576 23.4798 91.1678H29.4798C29.4798 74.8764 18.2811 61.6231 4.4034 61.5913L4.38963 67.5913ZM0 53.33C0 57.447 0.513865 61.4637 1.48759 65.3248L7.30544 63.8577C6.45103 60.4696 6 56.9455 6 53.33H0ZM57.6358 0.329956C25.8307 0.329956 0 24.0333 0 53.33H6C6 27.8069 28.665 6.32996 57.6358 6.32996V0.329956ZM115.272 53.33C115.272 24.0333 89.4413 0.329956 57.6358 0.329956V6.32996C86.6069 6.32996 109.272 27.8069 109.272 53.33H115.272ZM113.777 65.3512C114.755 61.4819 115.272 57.4563 115.272 53.33H109.272C109.272 56.9538 108.818 60.4856 107.96 63.8808L113.777 65.3512ZM92.6948 91.1678C92.6948 77.6324 101.597 68.1037 111.025 67.6119L110.713 61.6201C97.3203 62.3186 86.6948 75.2804 86.6948 91.1678H92.6948ZM92.7875 93.5196C92.7263 92.749 92.6948 91.9647 92.6948 91.1678H86.6948C86.6948 92.1228 86.7325 93.0657 86.8063 93.9948L92.7875 93.5196Z" fill="white"/>
</svg>
