<svg xmlns="http://www.w3.org/2000/svg" id="master-artboard" width="627.76" height="155.66"><defs><path id="text-path-0" fill="none" stroke="red" stroke-width="2" d="M778.85 213.46a100 18 0 0 1 209.5 0 100 18 0 0 1-209.5 0z"/><path id="text-path-1" fill="none" stroke="red" stroke-width="2" d="M664.55 37.96a100 19 0 0 1 212.03 0 100 19 0 0 1-212.03 0"/><path id="text-path-2" fill="none" stroke="red" stroke-width="2" d="M765.37 211.7a100 17 0 0 1 226.13 0 100 17 0 0 1-226.13 0"/><path id="path-1" fill="none" stroke="red" stroke-width="2" d="M765.37 211.7a100 17 0 0 1 226.13 0 100 17 0 0 1-226.13 0"/></defs><path id="ee-background" fill="#fff" fill-opacity="0" d="M0 0h627.76v155.66H0z" pointer-events="none"/><g fill="#FFF" transform="matrix(1.64623 0 0 1.64623 -381.36 -413.17)"><path d="M437.5 259.4h-24c-1.4 0-2.4 1.1-2.4 2.3s1 2.2 2.3 2.2h9.9v18.7c0 1.3 1 2.4 2.4 2.4s2.4-1.1 2.4-2.4V264h9.4c1.3 0 2.4-1 2.4-2.2s-1-2.3-2.4-2.3zm-32.3 0c-.7 0-1.1.2-1.6.5l-21.1 18v-16.1c0-1.3-1-2.4-2.4-2.4a2.4 2.4 0 0 0-2.4 2.4v20.8c0 1.3 1.1 2.4 2.4 2.4.8 0 1.3-.4 1.7-.7l21-17.8v16.1c0 1.3 1 2.4 2.4 2.4 1.3 0 2.4-1.1 2.4-2.4v-20.8c0-1.3-1.1-2.4-2.4-2.4zm-38.9 0H347a6 6 0 0 0-6 6V279c0 3.3 2.2 6 6 6h19.2c3.4 0 5.8-2.5 5.8-5.9v-1.8c0-1.3-1-2.4-2.3-2.4a2.4 2.4 0 0 0-2.3 2.4v1.8c0 .6-.5 1.3-1.2 1.3H347c-.7 0-1.3-.6-1.3-1.3v-13.8c0-.7.6-1.4 1.3-1.4h19.2c.7 0 1.2.8 1.2 1.4v1.7c0 1.3 1 2.4 2.3 2.4 1.3 0 2.3-1 2.3-2.4v-1.8c0-3.4-2.4-5.8-5.8-5.8zm218 0a2.4 2.4 0 0 0-2.4 2.4v20.8c0 1.3 1.1 2.4 2.4 2.4 1.3 0 2.4-1.1 2.4-2.4v-20.8c0-1.3-1-2.4-2.4-2.4zm-47 0c-.7 0-1 .2-1.5.5l-21.2 18v-16.1c0-1.3-1-2.4-2.4-2.4a2.4 2.4 0 0 0-2.3 2.4v20.8c0 1.3 1 2.4 2.3 2.4.8 0 1.3-.4 1.8-.7l21-17.8v16.1c0 1.3 1 2.4 2.3 2.4 1.3 0 2.4-1.1 2.4-2.4v-20.8c0-1.3-1.1-2.4-2.4-2.4zm35.9 0a2.4 2.4 0 0 0-2.4 2.4v8.2h-20v-8.2c0-1.3-1-2.4-2.3-2.4a2.5 2.5 0 0 0-2.4 2.4v20.8c0 1.3 1 2.4 2.4 2.4 1.2 0 2.4-1.1 2.4-2.4v-8h20v8c0 1.3 1 2.4 2.3 2.4 1.3 0 2.4-1.1 2.4-2.4v-20.8c0-1.3-1.1-2.4-2.4-2.4zm34.8 21.4l-13.4-8.6 13.3-8.7c.8-.3 1.1-1.2 1.1-2 0-1.4-1.2-2.1-2.1-2.1a3 3 0 0 0-1.5.4l-16.1 10.4c-.8.5-1 1.3-1 2 0 .8.3 1.5 1 2l16.1 10.4c.5.2 1 .4 1.4.4 1.2 0 2.2-1 2.2-2.2 0-.8-.3-1.5-1-2zm-114.3-20.2c-.6-1-1.3-1.2-2.1-1.2s-1.6.4-2 1.2l-12.7 21a2.2 2.2 0 0 0 1.8 3.4c.9 0 1.7-.5 2.2-1.2l10.7-17.8 10.6 17.8c.5.7 1.3 1.2 2.1 1.2 1.3 0 2.3-1.1 2.3-2.4 0-.4-.2-.8-.4-1.2l-12.5-20.8zm-22.9-1.2c-.7 0-1 .2-1.5.5l-21.2 18v-16.1c0-1.3-1-2.4-2.4-2.4a2.4 2.4 0 0 0-2.3 2.4v20.8c0 1.3 1 2.4 2.3 2.4.8 0 1.3-.4 1.8-.7l21-17.8v16.1c0 1.3 1 2.4 2.3 2.4 1.3 0 2.4-1.1 2.4-2.4v-20.8c0-1.3-1-2.4-2.4-2.4zM348.2 302c0 2.5-2.8 2.5-2.8 2.5H344c-1.2 0-2.8-.5-2.8-2.3 0-.7.3-1 .8-1h.6v.7c0 .6.3 1.3 1.4 1.3h1.5c1.4 0 1.4-1.3 1.4-1.3v-2h-3.6v-1.3h3.6v-2.1s0-1.3-1.4-1.3H344c-.9 0-1.3.5-1.3 1.2v.9h-.6c-.7 0-.8-.6-.8-1 0-1.9 1.6-2.4 2.8-2.4h1.4s2.8 0 2.8 2.6v5.4zm10.3-7.4v9.2s0 .6-.7.6h-.7v-9.2h-1c-.7 0-.8.3-1 .8l-1.7 5.5-.1 1v2h-.8c-.3 0-.6-.3-.6-.8V302l2-6.4c.3-1 .8-1.5 2.2-1.5h1.7c.4 0 .7.2.7.6zm5.9 8.6h5v.6s0 .6-.7.6h-5s-.7 0-.7-.6V295c0-.8.4-1 1.2-1h4.5c.6 0 .6.6.6.6v.6h-4.9v3.3h4.3v1.2h-4.3v3.5zm10.2 1.2h-.7s-.7 0-.7-.6v-9c0-.4.3-.8.9-.8h.5v4.5h1.4c.6-.7 1.9-3 1.9-3v-.7c0-.8.4-.8.8-.8h.6v1.2c0 .6-.1.9-.3 1.1l-1.7 2.6.7.5c.7.4 1.5 1 1.5 2.4v2.6h-.6s-.8 0-.8-.6v-1.6c0-.8-.1-1.4-1-2l-1-.4h-1.5v4.6zm15.4-9.2h-3.3v9.2h-1.4v-9.2H382v-.6s0-.6.7-.6h6.6c.7 0 .7.6.7.6v.6zm5.8 4c1.2 0 1.7-.6 1.7-1.6v-.9c0-1.1-.6-1.5-1.4-1.5h-2v4h1.7zm-1.6 5.2h-.8c-.6 0-.6-.6-.6-.6v-8.7c0-1 .7-1.1 1.2-1.1h2.2c2.3 0 2.7 1.1 2.7 2.4v1.4c0 2-1.6 2.7-3 2.7h-1.7v4zm13.4-7.9s0-1.4-1.4-1.4H405c-1.5 0-1.5 1.4-1.5 1.4v5.1c0 .5.2 1.7 1.4 1.7h1.4c1.3 0 1.3-1.4 1.3-1.4v-5.4zm1.4 0v5.4c0 2.6-2.7 2.6-2.7 2.6h-1.6c-.9 0-2.6-.5-2.6-2.9v-5c0-2.7 2.8-2.7 2.8-2.7h1.4s2.7 0 2.7 2.7zm10.9-2.5s.7 0 .7.6v9.2c0 .6-.7.6-.7.6h-.7v-4.7h-4.3v4.7h-.7s-.7 0-.7-.6v-9.2c0-.6.7-.6.7-.6h.7v4.5h4.3V294h.7zm11.5 0s.7 0 .7.6v9.2c0 .6-.7.6-.7.6h-.7v-4.7h-4.2v4.7h-.7s-.7 0-.7-.6v-9.2c0-.6.7-.6.7-.6h.7v4.5h4.2V294h.7zm12.6 10.4V294h.6c.6 0 .8.3.8.9v8.8c0 .5-.2.8-.8.8h-.6zm-2.5-3.2c0-1.3-1.4-1.3-1.4-1.3h-2v3.3h2c1.4 0 1.4-1.4 1.4-1.4v-.6zm1.4.7c0 2.5-2.8 2.5-2.8 2.5h-2.8c-.7 0-.7-.6-.7-.6v-9c0-.7.5-.9 1-.9h.5v4.7h2c2.8 0 2.8 2.5 2.8 2.5v.9-.1zm13.5-8c-.5 0-.6 0-.8.4l-4.4 7.7.2-3v-5h-.6c-.8 0-.8.5-.8.9v9c0 .3.2.6.6.6.2 0 .5 0 .7-.4l4.5-7.6-.2 3v5h.6c.6 0 .8-.5.8-1.1v-9c0-.2-.1-.5-.6-.5zm-1.4-.6c.5 0 .6-.3.6-.7v-.6h-2.8c-.6 0-.7.4-.7.7v.7l1.7-.1h1.1zm16.7 10V295h-1c-.7 0-.9.8-.9.8l-1.2 5.2-.1.8v1.4h3.2zm2 0c.4 0 .9.2.9.8v1.2c0 .6-.3.7-.7.7h-.7v-1.6h-6.3v1.6h-.7c-.4 0-.7-.1-.7-.7v-1.1c0-.7.3-1 1-1h.5v-1.7l1.5-5.8c.4-1 1-1.7 2.5-1.7h1.4c.5 0 .7.3.7.6v8.7h.5zm11.3.1c0 .6-.3 1-.9 1h-.6v-5l.2-3-4.5 7.7c-.2.3-.5.4-.7.4-.4 0-.6-.3-.6-.6v-9c0-.4 0-1 .8-1h.6v5l-.2 3 4.4-7.6c.2-.3.3-.4.8-.4s.6.3.6.5v9zm8.9-9.5c.9 0 2.3.5 2.3 2v.4c0 .6-.3.7-.8.7h-.6v-.6c0-.9-.2-1.2-1.4-1.2h-1.1c-1.5 0-1.5 1.3-1.5 1.3v5.1c0 .6 0 1.6 1.5 1.6h1.2c.9 0 1.3-.4 1.3-1v-1h.7c.4 0 .7.2.7.7v.5c0 1-1 2-2.5 2H492c-.5 0-2.6 0-2.6-2.6v-5.2c0-2.7 2.7-2.7 2.7-2.7h1.8zm7.7 10.5h-.7s-.7 0-.7-.6v-9c0-.4.3-.8.8-.8h.6v4.5h1.4c.6-.7 1.8-3 1.9-3v-.7c0-.8.4-.8.8-.8h.6v1.2c0 .6-.1.9-.3 1.1l-1.7 2.6.7.5c.7.4 1.5 1 1.5 2.4v2.6h-.7s-.7 0-.7-.6v-1.6c0-.8-.1-1.4-1-2l-1-.4h-1.5v4.6zm13.4-3.8l-1.4-4.6-1.5 4.6h3zm2.1 3.2s0 .6-.7.6h-.7v-1.8l-.3-.8h-3.7l-.2.8v1.8h-.7c-.7 0-.7-.6-.7-.6v-1.6l2.8-7.8c0-.3.3-.6.7-.6.4 0 .6.3.7.6l2.8 7.8v1.6zm6.5 0c-.2.4-.4.6-.8.6h-.9c-.7 0-1-.2-1-.6v-.7h1.6l.4-1.1-2.9-7.2c0-.4.2-.8.5-.8h.8l2.5 6.5.4-1.5 2-5h.6c.3 0 .6.4.5.8l-3.7 9zm13.8-9.8s.7 0 .7.6v9.2c0 .6-.7.6-.7.6h-.7v-4.7h-4.2v4.7h-.7s-.7 0-.7-.6v-9.2c0-.6.7-.6.7-.6h.7v4.5h4.2V294h.7zm11.6 1.2h-3.3v9.2h-1.4v-9.2h-3.4v-.6s0-.6.7-.6h6.6c.7 0 .7.6.7.6v.6zm4.5 8h4.9v.6s0 .6-.7.6h-5s-.6 0-.6-.6V295c0-.8.4-1 1.2-1h4.4c.7 0 .7.6.7.6v.6h-5v3.3h4.3v1.2h-4.2v3.5zm12.1-4c1.3 0 1.8-.6 1.8-1.6v-.9c0-1.1-.7-1.5-1.5-1.5h-2v4h1.7zm-1.6 5.2h-.7c-.7 0-.7-.6-.7-.6v-8.7c0-1 .7-1.1 1.2-1.1h2.2c2.3 0 2.8 1.1 2.8 2.4v1.4c0 2-1.6 2.7-3 2.7H564v4zm-238.1-11.6c0-1.4-1.2-2.5-2.6-2.5s-2.5 1-2.5 2.5v9.4c0 3.8-2.5 6.2-6.3 6.2H303v4.8h11.5c8 0 11.4-5.4 11.4-11.2v-9.2zM251 308.4h-6.8c-3.9 0-6.3-2.4-6.3-6.2v-39c0-3.9 2.4-6.3 6.3-6.3h70.2c3.8 0 6.3 2.4 6.3 6.3v9.3c0 1.5 1 2.6 2.5 2.6s2.6-1.1 2.6-2.6v-9.1c0-5.8-3.4-11.3-11.4-11.3h-70.3c-8 0-11.3 5.5-11.3 11.3V302c0 5.8 3.4 11.2 11.3 11.2h10.4l-3.5-4.8z"/><path d="M251.7 312.3l2.4 3 17.5 22.9c1 1.4 2.2 2.8 3.8 3.8 1.7 1 3.5 1.1 5.5 1.1h12.5c1.5 0 2.9-.2 4.2-.9 1.6-1 2.7-2.4 3.3-4.2l2.8-8a34.3 34.3 0 0 0 2.2-12.7v-16c0-1.7-.7-3.3-2-4.6a6.6 6.6 0 0 0-7-1.4l-.5.2-.3-.5a6.6 6.6 0 0 0-9-3.1l-.4.2-.2-.4-.9-1a6.7 6.7 0 0 0-6.5-1.7l-.8.2v-13.4a6.6 6.6 0 0 0-13.1 0v29l-3-2.7c-2-1.9-4.9-3-7.7-2.3a6.9 6.9 0 0 0-5 6.2c-.2 2.1.6 4.2 2 5.9l.3.4zm50.2 5a38 38 0 0 1-1.9 11.4l-2.8 7.7c-.3 1-.6 1.8-1.6 2.3-.6.4-1.4.5-2.2.5H281c-1.1 0-2.5 0-3.5-.7-1-.6-2-1.8-2.7-2.7l-20-26.2c-.8-1-1.3-1.8-1.2-3.2a3 3 0 0 1 .9-2c1.6-1.5 3.7-.7 5 .6l6.3 5.7c.4.4 1 .7 1.5.7a2 2 0 0 0 2-2v-33.6c0-3.4 5.2-3.5 5.2 0v25.5a2 2 0 0 0 4 0v-6c0-.7.2-1.4.7-1.9s1.2-.7 1.9-.7 1.3.2 1.8.7c.5.5.8 1.2.8 1.9v6c0 1.1.8 2 2 2a2 2 0 0 0 2-2v-3.8a2.41 2.41 0 0 1 2.5-2.3c.7 0 1.4.2 1.9.7.5.5.7 1.1.7 1.9v5.2a2 2 0 0 0 4 0v-1.6a2.6 2.6 0 0 1 2.6-2.6c.7 0 1.4.2 1.8.7.5.5.8 1.2.8 1.9v16z"/></g></svg>