<svg width="236" height="258" viewBox="0 0 236 258" fill="none" xmlns="http://www.w3.org/2000/svg">
<g clip-path="url(#clip0)">
<path d="M82.8113 112.696C86.2168 112.695 89.6176 112.439 92.9855 111.932L140.362 104.833L152.88 113.294C153.547 113.748 154.335 113.989 155.14 113.986C155.591 113.986 156.039 113.913 156.466 113.769L182.344 104.75C183.831 106.161 185.224 107.667 186.516 109.26C187.524 110.59 188.191 112.15 188.458 113.8C184.769 113.47 168.932 112.582 168.192 112.541H167.648C165.987 112.541 164.361 113.017 162.961 113.914L141.688 125.192L175.735 120.869L173.351 134.604L186.711 125.162L192.59 139.196L208.796 106.535L193.381 88.7966C192.775 87.9504 190.298 90.5818 190.298 90.5818L187.79 85.1539L190.01 79.9221C190.555 78.6115 189.609 75.7944 187.821 74.422L125.276 27.0465L124.926 43.0309C124.927 43.11 124.909 43.1882 124.876 43.2597C124.842 43.3312 124.792 43.394 124.731 43.4437L123.652 44.3827L114.927 27.9855L114.814 27.841C112.55 25.5518 109.66 23.9895 106.51 23.3522L64.9191 14.9214L96.3563 43.6707C97.2812 44.5272 97.7848 43.423 97.754 44.7026L97.9492 47.9945L19.3511 74.36L111.69 78.0853L91.1356 66.5484C93.7048 66.4555 96.7982 66.3833 99.7374 66.3833C103.077 66.3833 105.647 66.4762 107.383 66.6619C112.419 67.1985 117.897 70.3768 121.175 72.2859C122.008 72.7606 122.706 73.1733 123.231 73.452L124.803 74.2568L131.401 59.2527L171.316 82.5741L167.206 82.7702L164.719 87.6099C156.268 85.1728 147.51 83.9737 138.718 84.0498C135.696 84.0498 132.644 84.1839 129.643 84.4625C127.321 84.6689 124.906 84.7721 122.449 84.7721C111.589 84.6837 100.813 82.8513 90.5293 79.3442L88.9774 82.2852C91.0328 83.7299 108.75 96.1749 114.67 98.2903V98.4657L96.6029 102.81C81.6048 106.434 65.8141 104.629 52.0112 97.7124L40.2647 92.171C38.4593 91.2336 36.4357 90.8023 34.4068 90.9224C33.4236 90.9255 32.4429 91.0222 31.4779 91.2113L15.0347 94.3999C14.8191 94.439 14.6149 94.526 14.4371 94.6546C14.2593 94.7831 14.1124 94.95 14.0071 95.1429C13.1746 96.7424 14.9834 97.1345 16.4838 97.1345L32.8858 97.2377C34.6682 97.2494 36.4248 97.6656 38.0243 98.4554L52.1757 105.503C61.7039 110.226 72.1855 112.687 82.8113 112.696Z" fill="#808285"/>
<path d="M208.304 170.731C208.161 170.564 207.965 170.452 207.749 170.411L205.981 169.937C205.481 169.812 204.997 169.624 204.543 169.38C202.861 168.579 201.394 167.385 200.266 165.899C199.138 164.412 198.381 162.676 198.058 160.835C197.708 159.153 197.256 157.409 196.681 155.51C195.941 152.835 194.398 150.453 192.262 148.689C192.888 148.897 193.493 149.163 194.07 149.484L194.297 149.598L200.38 151.249L198.664 147.895C198.531 147.627 198.397 147.348 198.274 147.08C197.963 146.363 197.595 145.673 197.174 145.016C195.999 143.106 194.417 141.481 192.543 140.257C190.668 139.033 188.547 138.241 186.332 137.937C185.735 137.862 185.135 137.825 184.533 137.823C182.391 137.864 180.268 138.243 178.244 138.948L176.918 139.382C176.055 139.66 175.192 139.949 174.318 140.217C174.887 139.737 175.41 139.205 175.88 138.628C176.153 138.274 176.371 137.881 176.528 137.462L176.651 137.184L178.059 134.294L174.894 134.8H174.626C174.308 134.837 173.992 134.896 173.681 134.975C172.818 135.223 171.954 135.491 171.081 135.76C169.282 136.306 167.576 136.791 165.85 137.184C164.606 137.447 163.339 137.582 162.068 137.586C159.954 137.588 157.86 137.178 155.902 136.379C153.661 135.471 151.702 133.978 150.229 132.055C149.954 131.722 149.601 131.463 149.201 131.302L146.838 130.094L146.724 132.798C146.667 133.18 146.688 133.57 146.786 133.943C147.661 136.664 149.015 139.205 150.784 141.445C153.407 144.858 156.525 147.856 160.033 150.341L158.101 151.372C156.454 152.211 154.644 152.68 152.798 152.745H152.665C144.577 152.611 120.354 126.142 117.548 121.478C118.369 119.14 119.316 116.849 120.385 114.615L121.412 112.459L119.069 112.242C118.905 112.242 115.174 111.881 109.82 111.881C101.845 111.881 90.6329 112.655 82.4729 116.38C69.2054 122.427 52.1354 130.827 51.9709 130.94L44.6846 134.532L52.7931 134.108C52.9164 134.108 66.3381 133.417 85.5971 133.417H87.9506C106.994 133.469 128.514 150.733 130.775 153.498C130.939 154.633 129.911 158.906 128.298 162.104C127.27 164.065 122.964 166.862 120.457 168.162L115.657 170.669L121.032 171.309C128.668 172.415 136.381 172.885 144.094 172.713C154.997 172.279 168.553 161.361 169.077 161.073L169.344 156.408L171.626 157.956C172.54 158.586 173.208 160.897 173.208 160.897L178.871 160.815C178.871 160.815 179.487 157.719 179.6 157.141C179.718 156.484 179.766 155.816 179.744 155.149L180.279 155.449C182.725 156.873 183.907 159.133 183.896 162.352C183.944 163.057 183.848 163.764 183.613 164.429C183.378 165.095 183.009 165.705 182.529 166.222C181.79 167.123 181.103 168.067 180.474 169.049C181.673 169.549 182.971 169.761 184.266 169.668C186.456 169.191 188.409 167.956 189.785 166.181L190.34 165.469C190.494 165.757 190.658 166.057 190.833 166.346C193.988 171.505 198.366 174.188 203.834 174.188C208.448 174.188 210.051 171.681 210.051 171.681L208.304 170.731ZM159.19 157.564L161.061 151.166C162.089 151.909 163.229 152.642 164.411 153.374C165.593 154.107 166.765 154.85 168.029 155.686L159.19 157.564Z" fill="#808285"/>
<path d="M136.436 0.330078L12.8252 164.653H221.858L136.436 0.330078Z" fill="#808285"/>
<path d="M127.938 16.8203L29.6797 147.431H195.827L127.938 16.8203Z" fill="black"/>
<path d="M29.2996 184.466H33.8317V211.544H29.2996V184.466ZM55.4236 196.395C59.0308 196.395 60.7368 195.095 60.7368 192.412C60.7368 189.491 59.113 188.284 55.2284 188.284H53.0394V196.395H55.4236ZM48.8258 184.445H54.7762C58.887 184.445 61.0554 185.054 62.8025 186.685C63.5288 187.4 64.1042 188.254 64.4944 189.197C64.8846 190.141 65.0816 191.153 65.0737 192.174C65.1086 193.956 64.5054 195.692 63.3738 197.065C62.2422 198.438 60.6573 199.357 58.9075 199.656L66.9749 211.523H62.0728L54.3343 199.976H53.0805V211.523H48.8258V184.445ZM78.629 211.523H94.1472V207.395H83.0686V198.779H94.1266V194.754H83.0686V188.449H94.1266V184.466H78.6084L78.629 211.523ZM17.9949 188.429L19.5262 184.631H2.86727V195.074H1.63404L0 198.686H2.86727V211.709H6.97805V198.779H13.3087L14.9016 194.961H6.9575V188.449L17.9949 188.429Z" fill="#FF5100"/>
<path d="M125.153 186.427C123.136 185.115 120.772 184.446 118.37 184.507C116.573 184.492 114.79 184.834 113.125 185.514C111.46 186.194 109.946 187.197 108.668 188.467C107.391 189.737 106.377 191.248 105.684 192.914C104.991 194.579 104.633 196.365 104.63 198.17C104.63 199.94 104.979 201.693 105.657 203.328C106.334 204.962 107.328 206.445 108.579 207.692C109.831 208.939 111.316 209.925 112.948 210.594C114.581 211.262 116.33 211.599 118.093 211.585C120.573 211.622 123.016 210.972 125.153 209.707V204.97C122.625 207.117 120.713 207.901 118.134 207.901C116.867 207.904 115.612 207.652 114.443 207.161C113.274 206.67 112.215 205.948 111.328 205.039C110.441 204.131 109.745 203.053 109.279 201.87C108.814 200.686 108.589 199.421 108.617 198.149C108.583 196.868 108.803 195.594 109.265 194.399C109.727 193.205 110.421 192.115 111.307 191.192C112.193 190.27 113.253 189.535 114.425 189.028C115.597 188.522 116.858 188.255 118.134 188.243C120.757 188.23 123.28 189.257 125.153 191.101V186.427ZM144.761 184.549H140.651V201.74C140.651 207.653 144.916 211.585 150.732 211.585C156.549 211.585 160.845 207.653 160.845 201.74V184.549H156.734V200.585C156.734 203.092 156.57 204.165 155.881 205.311C155.33 206.178 154.571 206.892 153.673 207.386C152.775 207.881 151.767 208.14 150.743 208.14C149.718 208.14 148.711 207.881 147.812 207.386C146.914 206.892 146.155 206.178 145.604 205.311C144.946 204.165 144.741 203.051 144.741 200.585L144.761 184.549ZM193.063 186.736C190.401 184.807 187.668 184.476 182.961 184.476H175.89L174.092 187.964H177.226V211.482H182.93C187.842 211.482 190.124 210.904 192.878 208.892C194.635 207.641 196.054 205.971 197.008 204.033C197.962 202.095 198.422 199.949 198.345 197.788C198.414 195.653 197.968 193.533 197.045 191.609C196.121 189.684 194.748 188.013 193.043 186.736H193.063ZM190.422 205.682C188.541 207.127 186.537 207.653 183.228 207.653H181.347V188.047H183.228C186.548 188.047 188.634 188.614 190.473 189.976C191.654 190.915 192.601 192.115 193.241 193.483C193.881 194.851 194.197 196.349 194.163 197.86C194.207 199.369 193.891 200.867 193.24 202.228C192.589 203.589 191.623 204.774 190.422 205.682ZM236 211.523H231.489L228.632 204.857L226.956 200.997L222.907 191.71L218.684 200.997H222.455L224.243 204.857H216.967L213.884 211.513H209.465L212.548 204.857H208.735L210.534 201.008H214.336L222.969 182.433L236 211.523Z" fill="white"/>
<path fill-rule="evenodd" clip-rule="evenodd" d="M200.832 230.18C200.832 230.18 196.146 257.278 167.381 257.278L35.168 257.33C35.168 257.33 39.844 230.242 68.6195 230.242L200.832 230.18Z" fill="#FF5100"/>
<path d="M151.863 59.4282C157.258 65.5062 163.712 70.7793 169.765 76.3104C171.625 77.9924 180.73 77.6313 181.902 79.788C183.957 83.699 181.902 86.5987 183.957 90.5819C186.486 95.4526 189.661 99.9724 192.025 104.957C193.053 107.165 194.142 110.188 192.323 112.18C191.46 113.212 190.083 113.625 189.116 114.491C188.09 115.562 187.151 116.715 186.311 117.938C183.814 121.034 179.281 124.408 175.191 124.584C170.371 124.79 167.298 119.269 163.147 116.958C160.833 115.729 158.589 114.371 156.425 112.892C154.505 111.719 153.002 109.968 152.13 107.887C150.259 102.253 159.92 98.9714 158.131 92.0575C157.34 89.034 153.671 86.0827 151.965 83.5235C149.674 80.0872 140.352 78.5703 137.917 75.2063C134.834 70.8722 135.43 67.4153 132.377 63.0296C130.846 60.8513 129.872 58.3285 129.541 55.6833C129.209 53.0381 129.53 50.3516 130.476 47.8604C134.587 48.593 133.487 49.3257 137.578 50.048C140.129 50.3706 142.607 51.1279 144.905 52.2873C146.744 53.4515 148.348 54.9534 149.632 56.7142C150.311 57.643 151.071 58.5407 151.863 59.4282Z" fill="black"/>
<path d="M164.246 65.4134L164.133 65.3618L164.246 65.4134Z" fill="white"/>
<path d="M206.927 106.618L192.611 132.963L187.873 122.344L176.815 129.784L178.871 117.804L151.688 121.24L164.935 114.223C166.202 113.395 167.701 112.997 169.21 113.088C169.21 113.088 187 114.12 189.764 114.378C192.529 114.636 190.843 109.528 188.942 107.154C187.59 105.476 186.134 103.884 184.585 102.387C184.173 102.005 183.814 101.799 183.475 101.902L157.042 111.117C156.692 111.239 156.318 111.277 155.951 111.229C155.583 111.181 155.232 111.047 154.925 110.838L141.873 102.005L93.8595 109.229C80.2685 111.273 66.38 109.083 54.0672 102.954L39.9569 95.793C38.0181 94.8353 35.8791 94.3576 33.7188 94.3999L16.1041 94.8023C16.0305 94.7985 15.9607 94.7684 15.9074 94.7175C15.854 94.6665 15.8206 94.5981 15.8131 94.5245C15.8057 94.4509 15.8247 94.3771 15.8667 94.3164C15.9088 94.2556 15.9711 94.2121 16.0424 94.1935L32.3006 91.0358C35.1808 90.4663 38.1677 90.8652 40.7996 92.1709L52.464 98.0013C66.6205 105.093 82.814 106.945 98.1964 103.233L116.181 98.8887C117.723 98.5172 120.086 96.6907 116.705 95.6175C111.382 93.9252 91.0128 79.7053 91.0128 79.7053C91.0128 79.7053 109.82 86.8256 130.867 84.9165C151.914 83.0075 166.62 88.4354 166.62 88.4354L169.313 83.1932L178.11 82.7598L133.601 56.6935C133.412 56.5459 133.192 56.4436 132.958 56.3941C132.724 56.3447 132.482 56.3496 132.25 56.4083C132.018 56.467 131.803 56.578 131.62 56.7329C131.437 56.8879 131.292 57.0826 131.196 57.3023L125.266 70.7998C122.543 69.3861 115.472 64.5464 108.823 63.8344C102.174 63.1223 86.4396 63.9479 86.4396 63.9479L105.853 74.8966L28.9811 71.0991L100.427 47.0347C100.665 45.9957 100.628 44.9119 100.317 43.8922C100.007 42.8724 99.4351 41.9526 98.6589 41.225L71.9388 16.3247L107.59 23.5482C110.391 24.0993 112.925 25.5826 114.783 27.7584L124.351 45.848L127.003 43.5468C127.237 43.3412 127.426 43.0894 127.558 42.8071C127.691 42.5248 127.764 42.218 127.773 41.906L128.02 29.2237L187.955 74.6283C188.528 75.0643 188.939 75.6792 189.125 76.3761C189.312 77.073 189.261 77.8122 188.983 78.4773L186.465 84.4109L189.754 91.139L192.231 88.714C192.32 88.6251 192.428 88.5556 192.545 88.5098C192.663 88.464 192.789 88.4428 192.915 88.4477C193.041 88.4525 193.165 88.4832 193.279 88.5379C193.392 88.5926 193.494 88.67 193.577 88.7656L206.927 106.618Z" fill="white"/>
<path d="M77.1906 250.22C76.2169 250.726 75.1799 251.097 74.1075 251.325C73.0434 251.552 71.9583 251.667 70.8702 251.665C69.7665 251.677 68.6698 251.488 67.633 251.108C66.6814 250.763 65.8104 250.226 65.074 249.529C64.3435 248.825 63.7691 247.974 63.3886 247.032C62.5983 244.923 62.5983 242.598 63.3886 240.489C63.7655 239.545 64.3403 238.693 65.074 237.992C65.8069 237.291 66.6789 236.753 67.633 236.413C68.6698 236.033 69.7665 235.844 70.8702 235.856C71.988 235.845 73.1019 235.991 74.1794 236.289C75.1713 236.572 76.0832 237.084 76.8412 237.786L74.5083 240.335C74.0725 239.895 73.5559 239.545 72.9873 239.303C72.3269 239.039 71.622 238.906 70.9114 238.911C70.2567 238.903 69.607 239.026 68.9998 239.272C68.442 239.499 67.9379 239.842 67.5201 240.278C67.1024 240.713 66.7802 241.232 66.5745 241.8C66.1357 243.052 66.1357 244.417 66.5745 245.67C66.7787 246.24 67.1009 246.76 67.52 247.197C67.9304 247.643 68.4316 247.995 68.9896 248.229C69.5953 248.48 70.246 248.603 70.9011 248.59C71.5292 248.601 72.1557 248.521 72.7612 248.353C73.195 248.227 73.6151 248.057 74.015 247.847V245.412H71.3224V242.316H77.1906V250.22Z" fill="black"/>
<path d="M127.28 236.238H130.579V251.283H127.28V236.238Z" fill="black"/>
<path d="M173.177 250.22C172.204 250.727 171.167 251.098 170.094 251.324C169.03 251.552 167.945 251.667 166.857 251.665C165.753 251.677 164.656 251.488 163.619 251.108C162.663 250.766 161.789 250.228 161.05 249.529C160.322 248.825 159.751 247.974 159.375 247.032C158.566 244.926 158.566 242.595 159.375 240.489C159.748 239.546 160.32 238.694 161.05 237.992C161.786 237.29 162.662 236.752 163.619 236.413C164.656 236.033 165.753 235.844 166.857 235.856C167.974 235.846 169.088 235.991 170.166 236.289C171.155 236.572 172.063 237.084 172.817 237.786L170.495 240.335C170.055 239.895 169.535 239.544 168.963 239.303C168.308 239.05 167.61 238.927 166.908 238.941C166.25 238.934 165.597 239.057 164.986 239.303C164.432 239.543 163.932 239.894 163.517 240.335C163.101 240.781 162.779 241.308 162.571 241.882C162.147 243.137 162.147 244.497 162.571 245.752C162.779 246.321 163.101 246.84 163.517 247.279C163.929 247.723 164.43 248.075 164.986 248.311C165.595 248.562 166.25 248.685 166.908 248.672C167.982 248.695 169.044 248.439 169.991 247.929V245.412H167.309V242.316H173.167L173.177 250.22Z" fill="black"/>
<path d="M102.831 236.238V251.283H106.13V246.247L102.831 236.238Z" fill="black"/>
<path d="M114.784 236.238L111.31 246.051H111.269L107.816 236.238H105.021L106.172 239.746L106.357 240.293L109.964 251.283H112.471L116.407 239.746H116.448V251.283H119.758V236.238H114.784Z" fill="black"/>
<path d="M141.278 244.895V251.242H137.938V239.488L141.278 244.895ZM152.315 236.072V251.242H147.988L144.001 244.895L141.319 240.51L138.636 236.145H142.48L148.924 246.68V236.114L152.315 236.072Z" fill="black"/>
<path d="M92.1633 245.236L90.3031 240.53L88.4636 245.246H90.149L91.0842 248.063H87.6106H87.4153L86.1512 251.283H82.4618L83.8492 248.063H81.6396L83.0065 245.246H85.0722L89.0185 236.114H91.783L98.3808 251.283H94.6092L93.304 248.063L92.1633 245.236Z" fill="black"/>
<path fill-rule="evenodd" clip-rule="evenodd" d="M164.483 161.382L167.566 156.574L157.947 158.637L159.951 151.765C158.016 152.774 155.872 153.315 153.692 153.344C143.898 153.189 116.695 122.004 116.859 120.601C117.024 119.197 119.942 112.841 119.942 112.841C119.942 112.841 97.6312 110.746 84.1992 116.814C70.7672 122.881 53.7383 131.384 53.7383 131.384C53.7383 131.384 68.1774 130.631 88.9882 130.693C109.799 130.755 132.717 150.217 133.344 151.723C133.97 153.23 132.419 158.637 130.815 161.816C129.212 164.994 122.296 168.533 122.296 168.533C122.296 168.533 138.009 170.422 145.039 169.927C152.068 169.431 164.565 161.351 164.565 161.351L164.483 161.382Z" fill="#FF5100"/>
<path d="M196.033 146.863C194.663 146.08 193.142 145.599 191.572 145.451C190.003 145.304 188.419 145.493 186.928 146.006C186.665 146.125 186.417 146.274 186.188 146.45C186.401 146.519 186.617 146.578 186.836 146.626C191.645 147.245 194.769 150.021 196.249 154.881C196.763 156.584 197.226 158.307 197.575 160.041C197.913 162.089 198.746 164.023 200 165.675C201.253 167.326 202.891 168.644 204.769 169.514C205.798 169.917 206.856 170.242 207.934 170.484C208.083 170.557 208.222 170.651 208.345 170.762C208.212 170.876 208.088 171.041 207.934 171.082C207.361 171.235 206.777 171.341 206.187 171.402C200.452 171.856 196.29 169.276 193.341 164.416C192.724 163.384 192.313 162.259 191.748 161.176C191.018 162.135 190.33 163.136 189.569 164.075C188.426 165.55 186.804 166.576 184.986 166.975C184.778 166.976 184.572 166.938 184.379 166.861C184.462 166.707 184.566 166.564 184.688 166.438C185.382 165.784 185.919 164.979 186.257 164.085C186.596 163.191 186.727 162.231 186.64 161.279C186.64 157.543 185.232 154.685 182.19 152.92C181.29 152.408 180.356 151.956 179.395 151.568C178.861 151.352 178.439 151.486 178.758 152.291C179.18 153.399 179.277 154.606 179.035 155.768C178.658 157.31 177.898 158.73 176.826 159.896C176.661 160.102 176.332 160.164 176.076 160.298C176.015 160.075 175.971 159.847 175.942 159.617C175.89 158.8 175.656 158.006 175.257 157.291C174.859 156.577 174.306 155.961 173.64 155.49C171.286 153.87 168.913 152.291 166.446 150.784C161.356 147.835 156.871 143.941 153.23 139.309C151.582 137.226 150.319 134.863 149.499 132.333C149.464 132.108 149.464 131.878 149.499 131.652C149.684 131.756 149.931 131.807 150.054 131.972C151.71 134.124 153.905 135.794 156.416 136.812C159.879 138.201 163.677 138.514 167.32 137.71C169.992 137.152 172.622 136.213 175.274 135.47C175.613 135.391 175.956 135.332 176.302 135.295C176.156 135.685 175.97 136.059 175.747 136.409C174.206 138.118 172.331 139.488 170.238 140.434C169.642 140.744 169.015 140.981 168.409 141.28C168.272 141.387 168.154 141.516 168.06 141.662C168.193 141.765 168.327 141.951 168.471 141.951C169.639 142.055 170.816 142.013 171.975 141.827C174.637 141.136 177.268 140.248 179.899 139.392C182.256 138.538 184.771 138.214 187.267 138.442C189.249 138.718 191.146 139.433 192.82 140.534C194.494 141.635 195.904 143.095 196.948 144.809C197.467 145.671 197.934 146.564 198.346 147.482L196.033 146.863Z" fill="#FF5100"/>
</g>
<defs>
<clipPath id="clip0">
<rect width="236" height="257" fill="white" transform="translate(0 0.330078)"/>
</clipPath>
</defs>
</svg>
